<!-- This is a placeholder SVG for vehicle management project -->
<svg width="800" height="450" viewBox="0 0 800 450" fill="none" xmlns="http://www.w3.org/2000/svg">
  <rect width="800" height="450" fill="#f8fafc"/>
  <rect x="50" y="50" width="700" height="350" fill="white" stroke="#e2e8f0" stroke-width="2"/>
  
  <!-- Header -->
  <rect x="70" y="70" width="660" height="60" fill="#1e40af"/>
  <text x="90" y="105" fill="white" font-family="Arial" font-size="24" font-weight="bold">Vehicle Management Dashboard</text>
  
  <!-- Sidebar -->
  <rect x="70" y="140" width="160" height="240" fill="#f1f5f9" stroke="#e2e8f0"/>
  <text x="90" y="165" fill="#475569" font-family="Arial" font-size="14">📊 Dashboard</text>
  <text x="90" y="185" fill="#475569" font-family="Arial" font-size="14">🚗 Vehicles</text>
  <text x="90" y="205" fill="#475569" font-family="Arial" font-size="14">👥 Drivers</text>
  <text x="90" y="225" fill="#475569" font-family="Arial" font-size="14">🔧 Maintenance</text>
  <text x="90" y="245" fill="#475569" font-family="Arial" font-size="14">📈 Reports</text>
  
  <!-- Main content -->
  <rect x="250" y="140" width="500" height="240" fill="white" stroke="#e2e8f0"/>
  
  <!-- Cards -->
  <rect x="270" y="160" width="100" height="80" fill="#dbeafe" stroke="#3b82f6"/>
  <text x="275" y="180" fill="#1e40af" font-family="Arial" font-size="12">Total Vehicles</text>
  <text x="295" y="210" fill="#1e40af" font-family="Arial" font-size="24" font-weight="bold">127</text>
  
  <rect x="390" y="160" width="100" height="80" fill="#dcfce7" stroke="#22c55e"/>
  <text x="395" y="180" fill="#15803d" font-family="Arial" font-size="12">Active</text>
  <text x="420" y="210" fill="#15803d" font-family="Arial" font-size="24" font-weight="bold">89</text>
  
  <rect x="510" y="160" width="100" height="80" fill="#fef3c7" stroke="#f59e0b"/>
  <text x="515" y="180" fill="#92400e" font-family="Arial" font-size="12">Maintenance</text>
  <text x="540" y="210" fill="#92400e" font-family="Arial" font-size="24" font-weight="bold">12</text>
  
  <rect x="630" y="160" width="100" height="80" fill="#fecaca" stroke="#ef4444"/>
  <text x="635" y="180" fill="#dc2626" font-family="Arial" font-size="12">Issues</text>
  <text x="665" y="210" fill="#dc2626" font-family="Arial" font-size="24" font-weight="bold">3</text>
  
  <!-- Table -->
  <rect x="270" y="260" width="460" height="100" fill="#f8fafc" stroke="#e2e8f0"/>
  <text x="280" y="280" fill="#374151" font-family="Arial" font-size="12" font-weight="bold">Recent Activity</text>
  <line x1="280" y1="290" x2="720" y2="290" stroke="#e2e8f0" stroke-width="1"/>
  <text x="280" y="310" fill="#6b7280" font-family="Arial" font-size="10">Vehicle VH-001 scheduled for maintenance</text>
  <text x="280" y="325" fill="#6b7280" font-family="Arial" font-size="10">Driver John Smith completed route R-45</text>
  <text x="280" y="340" fill="#6b7280" font-family="Arial" font-size="10">New vehicle VH-128 added to fleet</text>
</svg>
